<?xml version="1.0" encoding="UTF-8"?>
<svg xmlns="http://www.w3.org/2000/svg" xmlns:xlink="http://www.w3.org/1999/xlink" width="112pt" height="80pt" viewBox="0 0 112 80" version="1.1">
<g id="surface1">
<path style=" stroke:none;fill-rule:evenodd;fill:rgb(0%,40.784314%,27.843137%);fill-opacity:1;" d="M 37.101562 52.339844 L 32.679688 52.339844 L 38.703125 42.242188 L 29 34.421875 L 43.386719 34.421875 L 44.921875 31.832031 L 49.488281 31.832031 L 57.960938 17.8125 L 59.375 31.90625 C 61.761719 32.148438 63.710938 33.007812 65.0625 34.421875 L 83 34.421875 L 65.953125 43.550781 C 65.757812 43.964844 65.539062 44.378906 65.3125 44.769531 C 64.289062 46.605469 62.863281 48.183594 61.140625 49.386719 L 62.339844 61.28125 L 51.1875 52.285156 C 50.652344 52.316406 50.097656 52.339844 49.550781 52.339844 L 31.15625 62.1875 Z M 37.101562 52.339844 "/>
<path style=" stroke:none;fill-rule:evenodd;fill:rgb(6.666667%,6.666667%,6.666667%);fill-opacity:1;" d="M 38.746094 51.402344 L 34.316406 51.402344 L 39.925781 42.027344 L 31.636719 35.347656 L 43.910156 35.347656 L 45.457031 32.769531 L 50.011719 32.769531 L 57.308594 20.679688 L 58.527344 32.777344 C 61.21875 32.898438 63.328125 33.78125 64.648438 35.347656 L 79.285156 35.347656 L 65.226562 42.875 C 65.007812 43.367188 64.765625 43.847656 64.496094 44.3125 C 63.445312 46.183594 61.953125 47.769531 60.148438 48.929688 L 61.183594 59.15625 L 51.480469 51.339844 C 50.78125 51.382812 50.054688 51.402344 49.300781 51.402344 L 33.707031 59.757812 Z M 38.746094 51.402344 "/>
<path style=" stroke:none;fill-rule:evenodd;fill:rgb(100%,100%,100%);fill-opacity:1;" d="M 71.867188 37.210938 L 63.667969 37.210938 C 62.796875 35.601562 60.792969 34.628906 57.929688 34.628906 L 56.847656 34.628906 L 56.023438 26.417969 L 51.066406 34.628906 L 46.515625 34.628906 L 44.96875 37.210938 L 36.90625 37.210938 L 42.351562 41.589844 L 37.605469 49.539062 L 45.390625 49.539062 L 41.40625 50.621094 L 38.804688 54.921875 L 48.84375 49.539062 L 49.257812 49.539062 C 50.273438 49.539062 51.207031 49.496094 52.078125 49.433594 L 58.886719 54.921875 L 58.289062 49.203125 C 56.445312 49.398438 54.671875 49.246094 53.84375 49.226562 C 58.636719 48.453125 61.152344 46.359375 62.894531 43.375 C 64.082031 41.351562 64.410156 39.519531 64.015625 38.082031 C 64.671875 38.859375 65.078125 39.816406 65.183594 40.828125 L 71.871094 37.210938 Z M 71.867188 37.210938 "/>
<path style=" stroke:none;fill-rule:evenodd;fill:rgb(56.078431%,56.078431%,54.901961%);fill-opacity:1;" d="M 64.636719 39.019531 C 64.933594 39.582031 65.121094 40.195312 65.179688 40.828125 L 71.867188 37.210938 Z M 63.667969 37.210938 L 60.8125 38.605469 C 61 39.097656 61.261719 40.25 60.550781 41.972656 C 59.746094 43.941406 57.339844 47.417969 50.761719 47.417969 L 41.949219 47.417969 L 37.605469 49.539062 L 45.390625 49.539062 L 44.390625 49.8125 L 38.800781 54.910156 L 48.84375 49.539062 L 49.257812 49.539062 C 50.269531 49.539062 51.207031 49.496094 52.078125 49.433594 L 53.84375 49.214844 C 58.636719 48.453125 61.152344 46.359375 62.894531 43.375 C 64.082031 41.339844 64.410156 39.519531 64.015625 38.070312 C 63.921875 37.777344 63.804688 37.488281 63.667969 37.210938 Z M 47.863281 38.628906 L 54.605469 38.628906 C 56.542969 38.628906 57.710938 38.988281 58.003906 39.976562 L 60.8125 38.605469 C 60.050781 36.820312 57.863281 36.625 56.492188 36.625 L 48.398438 36.625 L 48.386719 36.613281 L 41.949219 47.417969 L 46.308594 45.28125 L 49.550781 39.976562 Z M 43.703125 39.324219 L 36.90625 37.210938 L 42.351562 41.589844 Z M 56.023438 26.417969 L 54.070312 34.621094 L 56.847656 34.621094 Z M 58.289062 49.191406 L 58.886719 54.910156 L 55.914062 49.289062 C 56.707031 49.308594 57.5 49.277344 58.289062 49.191406 Z M 58.289062 49.191406 "/>
<path style=" stroke:none;fill-rule:evenodd;fill:rgb(6.666667%,6.666667%,6.666667%);fill-opacity:1;" d="M 54.605469 38.628906 L 47.863281 38.628906 L 49.550781 39.976562 L 46.304688 45.28125 L 50.773438 45.28125 C 52.265625 45.28125 53.972656 45.226562 55.410156 44.390625 C 57.210938 43.320312 58.289062 41.460938 58.035156 40.152344 C 57.828125 39.019531 56.652344 38.628906 54.605469 38.628906 Z M 54.605469 38.628906 "/>
</g>
</svg>
